<svg width="586" height="586" viewBox="0 0 586 586" fill="none" xmlns="http://www.w3.org/2000/svg">
<path d="M63.0665 347.967L54.9059 361.123L58.9352 363.619C60.1201 364.353 60.7624 365.694 60.644 367.081C60.5784 367.849 60.5538 368.621 60.5714 369.396C60.6018 370.786 59.8752 372.08 58.6504 372.736L54.4746 374.976L61.7937 388.624L65.9696 386.384C67.1943 385.727 68.6746 385.838 69.8149 386.631C70.4501 387.074 71.1076 387.481 71.7839 387.85C73.0063 388.519 73.7669 389.796 73.7235 391.189L73.5735 395.927L89.0474 396.407L89.1904 391.653C89.2326 390.259 90.087 389.046 91.3481 388.45C91.6903 388.289 92.0302 388.117 92.3665 387.937C92.7029 387.756 93.0334 387.569 93.3569 387.373C94.5453 386.656 96.0208 386.614 97.201 387.345L101.26 389.859L109.419 376.703L105.383 374.198C104.198 373.463 103.557 372.121 103.678 370.732C103.744 369.968 103.769 369.198 103.754 368.427C103.724 367.039 104.451 365.746 105.675 365.09L109.852 362.85L102.532 349.204L98.3555 351.443C97.1319 352.1 95.654 351.989 94.5136 351.197C93.8796 350.758 93.2244 350.352 92.5517 349.985C91.3281 349.317 90.5652 348.041 90.6085 346.647L90.755 341.898L75.2823 341.418L75.1346 346.168C75.0913 347.558 74.2392 348.766 72.9828 349.359C72.6394 349.522 72.2972 349.695 71.9573 349.876C71.621 350.057 71.2905 350.244 70.967 350.44C69.7727 351.162 68.2901 351.203 67.1041 350.467L63.0665 347.967ZM76.1672 357.738C82.3389 354.428 90.0178 356.747 93.3276 362.917C96.6373 369.089 94.325 376.778 88.1532 380.088C81.9815 383.398 74.2861 381.075 70.9764 374.903C67.6666 368.733 69.9954 361.047 76.1672 357.738Z" fill="#EBEBEB"/>
<path d="M497.088 285.269L501.936 293.67L504.507 292.185C505.263 291.748 506.194 291.79 506.925 292.267C507.329 292.53 507.749 292.773 508.181 292.992C508.957 293.387 509.457 294.17 509.457 295.042V298.011H519.159V295.042C519.159 294.171 519.659 293.387 520.435 292.992C520.867 292.772 521.287 292.53 521.691 292.267C522.422 291.79 523.352 291.748 524.109 292.185L526.68 293.67L531.528 285.269L528.945 283.781C528.187 283.345 527.77 282.514 527.816 281.641C527.828 281.405 527.833 281.167 527.833 280.928C527.833 280.689 527.828 280.451 527.816 280.214C527.771 279.345 528.185 278.518 528.939 278.083L531.529 276.587L526.681 268.186L524.103 269.673C523.347 270.109 522.416 270.066 521.685 269.589C521.282 269.326 520.865 269.083 520.435 268.864C519.66 268.469 519.162 267.685 519.162 266.816V263.846H509.459V266.816C509.459 267.685 508.961 268.469 508.185 268.864C507.755 269.083 507.336 269.326 506.934 269.589C506.203 270.067 505.272 270.109 504.515 269.673L501.937 268.186L497.09 276.587L499.669 278.075C500.424 278.51 500.839 279.338 500.794 280.208C500.783 280.446 500.775 280.686 500.775 280.928C500.775 281.167 500.781 281.405 500.794 281.641C500.839 282.514 500.423 283.345 499.666 283.783L497.088 285.269ZM506.362 280.928C506.362 276.54 509.916 272.986 514.304 272.986C518.692 272.986 522.254 276.54 522.254 280.928C522.254 285.316 518.692 288.877 514.304 288.877C509.916 288.877 506.362 285.316 506.362 280.928Z" fill="#EBEBEB"/>
<path d="M170.438 89.173L175.286 97.5739L177.857 96.089C178.613 95.6518 179.543 95.694 180.275 96.171C180.679 96.4347 181.099 96.6773 181.531 96.8965C182.307 97.2914 182.806 98.0755 182.806 98.9463V101.916H192.509V98.9463C192.509 98.0755 193.009 97.2914 193.784 96.8965C194.217 96.6761 194.636 96.4347 195.041 96.171C195.772 95.694 196.702 95.6518 197.459 96.089L200.03 97.5739L204.877 89.173L202.294 87.6857C201.537 87.2497 201.12 86.4188 201.165 85.5456C201.176 85.3089 201.182 85.071 201.182 84.8319C201.182 84.5928 201.176 84.3549 201.165 84.1182C201.12 83.2497 201.534 82.4223 202.287 81.9875L204.877 80.4908L200.03 72.0899L197.452 73.5772C196.695 74.0132 195.765 73.9698 195.034 73.4928C194.631 73.2303 194.213 72.9877 193.783 72.7685C193.009 72.3735 192.509 71.5895 192.509 70.7198V67.75H182.806V70.7198C182.806 71.5895 182.308 72.3735 181.532 72.7685C181.102 72.9877 180.684 73.2303 180.282 73.4928C179.55 73.971 178.62 74.0132 177.863 73.5772L175.284 72.0899L170.437 80.4908L173.017 81.9793C173.771 82.4141 174.186 83.2427 174.142 84.1123C174.13 84.3502 174.124 84.5905 174.124 84.8319C174.124 85.071 174.13 85.3089 174.142 85.5456C174.186 86.4188 173.77 87.2497 173.013 87.6869L170.438 89.173ZM179.712 84.8319C179.712 80.4439 183.266 76.8904 187.654 76.8904C192.042 76.8904 195.603 80.4439 195.603 84.8319C195.603 89.2199 192.042 92.7816 187.654 92.7816C183.266 92.7816 179.712 89.2199 179.712 84.8319Z" fill="#EBEBEB"/>
<path d="M462.362 398.323C488.65 398.323 509.95 377.023 509.95 350.735C509.95 324.459 488.65 303.147 462.362 303.147C436.086 303.147 414.774 324.459 414.774 350.735C414.774 377.023 436.086 398.323 462.362 398.323ZM462.362 328.518C474.639 328.518 484.592 338.46 484.592 350.737C484.592 363.013 474.639 372.966 462.362 372.966C450.086 372.966 440.133 363.013 440.133 350.737C440.133 338.459 450.086 328.518 462.362 328.518Z" fill="#EBEBEB"/>
<path d="M453.214 396.351H471.513L470.502 409.305H454.225L453.214 396.351Z" fill="#EBEBEB"/>
<path d="M488.045 390.185L500.985 377.244L509.43 387.12L497.921 398.629L488.045 390.185Z" fill="#EBEBEB"/>
<path d="M508.315 361.194V342.895L521.27 343.906V360.183L508.315 361.194Z" fill="#EBEBEB"/>
<path d="M502.15 326.362L489.209 313.422L499.085 304.978L510.594 316.487L502.15 326.362Z" fill="#EBEBEB"/>
<path d="M473.16 306.093H454.859L455.872 293.139H472.149L473.16 306.093Z" fill="#EBEBEB"/>
<path d="M438.328 312.259L425.387 325.199L416.942 315.324L428.451 303.813L438.328 312.259Z" fill="#EBEBEB"/>
<path d="M418.057 341.248V359.549L405.103 358.536V342.259L418.057 341.248Z" fill="#EBEBEB"/>
<path d="M424.223 376.08L437.163 389.02L427.288 397.466L415.779 385.955L424.223 376.08Z" fill="#EBEBEB"/>
<path d="M222.215 104.762H348.451V32.3638H222.215V104.761V104.762Z" fill="#EBEBEB"/>
<path d="M369.804 104.762H348.451V82.5278L369.804 104.762Z" fill="#EBEBEB"/>
<path d="M335.245 44.8833H235.422V46.2592H335.245V44.8833Z" fill="white"/>
<path d="M292.872 52.3115H235.422V53.6875H292.872V52.3115Z" fill="white"/>
<path d="M318.459 67.1699H235.422V68.5458H318.459V67.1699Z" fill="white"/>
<path d="M335.245 74.5981H235.422V75.9741H335.245V74.5981Z" fill="white"/>
<path d="M335.245 82.0273H235.422V83.4033H335.245V82.0273Z" fill="white"/>
<path d="M278.701 89.4556H235.422V90.8315H278.701V89.4556Z" fill="white"/>
<path d="M237.339 336.875C288.916 385.623 336.277 438.891 338.717 465.827C342.096 503.12 324.101 514.009 313.668 513.985C285.259 513.923 234.105 399.271 218.566 355.838C203.478 313.665 226.013 326.17 237.339 336.875Z" fill="#009CD9"/>
<path opacity="0.1" d="M304.44 510.672C275.308 491.518 232.537 394.886 218.575 355.844C213.942 342.893 212.849 335.086 213.907 330.828L304.44 510.672Z" fill="black"/>
<path d="M78.8466 546.672H274.923C277.679 543.753 242.249 369.117 230.52 335.971C222.952 314.586 188.187 309.57 172.16 325.895C109.792 389.423 77.1999 544.655 78.8466 546.672Z" fill="#009CD9"/>
<path d="M299.187 507.778C283.439 495.842 291.263 458.669 300.136 397.532C301.693 386.804 373.96 360.246 375.454 371.741C377.336 386.22 365.89 454.459 359.329 471.108C346.393 503.93 317.576 521.715 299.187 507.778Z" fill="#EB9481"/>
<path d="M363.097 429.993C377.082 415.186 395.454 393.115 395.534 383.801C395.617 374.025 394.533 339.647 391.705 331.739C388.876 323.832 373.657 303.413 366.656 300.701C361.049 298.53 358.015 305.467 364.495 318.106C371.741 332.239 369.491 337.921 369.808 342.439C370.139 347.13 362.221 367.024 355.625 368.689C351.738 369.67 343.68 369.594 341.876 362.587C340.072 355.578 341.941 349.241 339.266 337.015C337.187 327.51 329.268 321.574 325.988 323.221C322.709 324.869 325.398 330.569 323.187 344.797C321.809 353.67 320.473 360.036 309.837 372.97C300.528 384.291 299.895 400.013 299.895 400.013L363.097 429.993Z" fill="#EB9481"/>
<path d="M396.265 361.896C395.9 356.538 399.618 340.322 398.384 333.241C397.15 326.159 388.945 300.1 381.034 297.947C371.092 295.241 373.969 316.42 376.054 325.502C378.14 334.584 372.261 350.929 372.261 350.929L385.941 356.804L396.265 361.896Z" fill="#EB9481"/>
<path d="M370.258 354.651C372.717 346.427 375.785 338.073 375.927 329.421C375.53 323.231 374.315 317.128 374.05 310.879C373.986 307.18 373.77 303.127 375.673 299.79C376.326 298.689 377.487 297.892 378.733 297.763C377.504 298.027 376.496 298.872 375.94 299.947C374.374 303.311 374.732 307.198 374.949 310.823C375.352 315.756 376.145 320.657 376.763 325.618C378.004 335.679 373.889 345.487 370.258 354.651Z" fill="#263238"/>
<path d="M395.782 366.556C396.919 361.343 404.939 346.964 405.726 339.856C406.512 332.747 405.922 305.527 398.999 301.18C390.297 295.716 387.173 316.739 386.643 326.001C386.112 335.263 376.002 349.138 376.002 349.138L387.38 358.706L395.782 366.556Z" fill="#EB9481"/>
<path d="M373.068 352.106C377.689 344.966 382.933 337.868 385.442 329.668C386.766 323.664 387.303 317.52 388.776 311.499C389.74 307.961 390.647 304.04 393.385 301.392C394.31 300.524 395.646 300.099 396.864 300.338C395.622 300.233 394.422 300.747 393.598 301.618C391.178 304.387 390.451 308.187 389.656 311.697C388.679 316.505 388.079 321.389 387.297 326.282C385.711 336.204 379.077 344.402 373.068 352.106Z" fill="#263238"/>
<path d="M374.887 364.682C370.111 368.789 363.748 370.574 357.677 371.789C355.606 372.162 353.49 372.308 351.436 372.435C345.252 372.762 339.153 374.026 333.64 376.883C331.766 377.757 330.018 378.867 328.24 379.945C334.694 374.597 342.996 371.609 351.353 371.277C359.49 370.723 367.942 369.162 374.887 364.682Z" fill="#263238"/>
<path d="M393.425 390.266C395.663 385.554 403.284 367.01 403.747 359.145C404.21 351.28 401.97 321.292 394.003 316.749C383.99 311.041 381.731 334.332 381.678 344.562C381.627 354.792 372.459 365.599 372.459 365.599L387.053 378.612L393.425 390.266Z" fill="#EB9481"/>
<path d="M383.051 328.532C383.222 331.906 383.027 335.368 382.859 338.735C382.698 341.927 382.775 345.26 382.135 348.391C381.493 351.535 380.121 354.41 378.496 357.149C377.697 358.496 376.822 359.777 375.904 361.048C374.904 362.432 373.762 363.729 372.789 365.129C372.686 365.276 372.438 365.132 372.54 364.979C374.251 362.413 375.667 359.523 377.021 356.755C378.43 353.873 379.51 350.758 380.158 347.607C381.457 341.303 381.374 334.781 382.612 328.466C382.662 328.21 383.038 328.293 383.051 328.532Z" fill="#263238"/>
<path d="M382.136 348.392C382.165 338.623 380.954 328.108 385.397 319.045C388.057 314.068 393.481 314.293 396.393 318.922C400.969 326.202 402.082 335.024 402.956 343.377C401.562 336.168 399.201 320.782 392.65 316.896C381.665 313.288 382.862 341.9 382.136 348.392Z" fill="#263238"/>
<path d="M375.043 421.001L291.345 431.457C291.345 431.457 278.684 501.182 303.541 510.792C328.398 520.402 348.943 499.269 359.328 471.108C369.715 442.946 375.043 421.001 375.043 421.001Z" fill="#009CD9"/>
<path d="M288.476 478.246C288.158 470.416 288.22 462.582 288.488 454.751C288.924 446.948 289.01 438.968 291.201 431.408L291.229 431.322L291.314 431.307L295.664 430.516L291.379 431.607L291.492 431.506C289.771 439.098 289.798 447.024 289.338 454.784C289.115 460.622 288.682 472.406 288.476 478.246Z" fill="#263238"/>
<path d="M296.718 450.845C308.419 448.727 340.33 443.976 361.499 443.821C361.626 443.82 361.696 444.342 361.572 444.363C344.034 447.36 308.669 450.608 296.821 451.62C296.598 451.64 296.497 450.886 296.718 450.845Z" fill="#263238"/>
<path d="M146.933 466.889C148.47 460.029 174.286 374.884 181.473 348.036C187.923 323.937 182.822 314.648 164.459 330.706C130.648 360.268 65.9603 447.838 56.0933 491.298C46.5884 533.164 80.7369 533.87 107.04 512.865C128.576 495.668 146.933 466.889 146.933 466.889Z" fill="#009CD9"/>
<path d="M143.647 477.892C151.469 445.549 160.837 413.586 171.749 382.151C163.939 414.496 154.547 446.453 143.647 477.892Z" fill="#263238"/>
<path d="M166.637 400.77C168.071 396.563 170.268 392.818 172.872 389.237C171.738 393.505 169.452 397.376 166.637 400.77Z" fill="#263238"/>
<path d="M68.6828 519.27C82.5101 532.392 112.24 529.362 187.813 528.76C198.271 528.677 217.536 454.718 206.365 454.232C192.292 453.622 137.552 454.3 133.554 454.855C99.8439 459.538 59.3045 510.369 68.6828 519.27Z" fill="#EB9481"/>
<path d="M194.814 457.472C194.814 457.472 222.753 447.565 239.042 446.903C260.854 446.017 280.051 454.234 287.888 458.162C304.246 466.363 338.129 497.5 330.864 508.823C324.286 519.073 291.26 485.496 291.26 485.496C291.26 485.496 330.582 514.174 320.394 525.06C310.206 535.945 274.085 494.786 274.085 494.786C274.085 494.786 313.826 525.158 301.544 534.722C292.263 541.95 257.447 506.514 257.447 506.514C257.447 506.514 291.426 532.856 282.2 540.7C272.006 549.368 237.818 518.675 237.818 518.675C211.012 534.666 191.706 531.315 178.258 527.296C175.001 526.324 194.814 457.472 194.814 457.472Z" fill="#EB9481"/>
<path d="M278.296 474.706C283.037 477.907 287.857 481.116 292.297 484.728C296.738 488.34 301.055 492.11 305.139 496.118C315.154 505.951 319.889 513.676 319.545 513.231C311.401 502.7 295.706 489.524 291.263 485.91C286.832 482.306 282.582 478.477 278.151 474.869C278.041 474.78 278.184 474.63 278.296 474.706Z" fill="#263238"/>
<path d="M264.962 490.501C270.839 494.852 276.832 498.955 282.519 503.565C288.177 508.154 293.144 513.002 298.472 517.968C298.882 518.35 298.541 518.446 298.115 518.078C292.593 513.329 287.121 509.365 281.545 504.68C275.987 500.013 270.569 495.093 264.847 490.632C264.757 490.563 264.872 490.437 264.962 490.501Z" fill="#263238"/>
<path d="M251.08 502C260.402 508.189 268.571 516.089 276.397 524.031C276.787 524.426 276.334 524.499 275.912 524.118C267.634 516.636 261.193 510.708 250.863 502.324C250.703 502.194 250.883 501.87 251.08 502Z" fill="#263238"/>
<path d="M192.402 446.161L144.463 546.07C144.463 546.07 69.1611 534.708 59.1592 519.867C52.01 509.258 94.9978 460.94 132.168 454.547L192.402 446.161Z" fill="#009CD9"/>
<path d="M91.0389 477.632C95.4479 471.64 110.775 458.487 132.2 454.479C132.388 454.444 132.487 454.736 132.299 454.79C116.631 459.32 95.9929 472.438 91.258 477.844C91.1326 477.986 90.9287 477.782 91.0389 477.632Z" fill="#263238"/>
<path d="M131.943 528.754C135.802 518.763 140.19 508.99 144.605 499.229C149.023 489.461 153.423 479.681 158.085 470.022C160.719 464.567 163.322 459.091 166.145 453.727C166.219 453.586 166.472 453.674 166.412 453.829C162.563 463.804 158.211 473.606 153.868 483.381C149.514 493.179 145.055 502.939 140.506 512.65C137.936 518.138 135.268 523.579 132.445 528.946C132.306 529.213 131.829 529.047 131.943 528.754Z" fill="#263238"/>
<path d="M192.227 445.231C188.049 445.188 183.926 445.783 179.781 446.301C175.642 446.818 171.511 447.406 167.386 448.032C159.183 449.277 141.658 450.979 127.263 455.628C127.103 455.68 128.166 456.192 128.322 456.132C135.064 453.568 187.355 447.62 191.484 446.617C191.41 446.929 191.341 447.245 191.313 447.576C191.293 447.801 191.574 447.996 191.742 447.784C192.139 447.282 192.363 446.742 192.719 446.216C193.012 445.783 192.767 445.237 192.227 445.231Z" fill="#263238"/>
<path d="M152.92 529.188C150.38 535.173 147.688 541.085 144.95 546.979C138.856 546.034 132.795 544.952 126.749 543.772C109.429 540.206 91.5464 536.4 75.1724 529.636C80.8847 531.297 86.6615 532.635 92.4394 533.969C104.025 536.702 132.577 542.659 144.611 545.261L143.729 545.702C146.714 540.155 149.751 534.636 152.92 529.188Z" fill="#263238"/>
<path d="M216.978 359.266C206.981 358.608 185.386 341.185 182.833 325.823C182.664 324.77 187.276 315.926 192.371 304.913C195.437 298.218 198.693 290.691 201.168 283.609C201.668 282.152 241.818 309.924 241.818 309.924C241.818 309.924 232.262 323.245 228.023 335.62C227.681 336.657 227.446 337.654 227.313 338.632C227.281 338.772 227.264 338.946 227.209 339.136C226.18 344.971 227.675 359.971 216.978 359.266Z" fill="#EB9481"/>
<path d="M227.327 338.633C227.283 338.778 227.258 338.959 227.203 339.132C225.75 338.835 224.217 338.387 222.575 337.78C196.63 328.067 201.167 292.929 202.735 284.169C210.234 288.058 241.821 309.921 241.821 309.921C241.821 309.921 232.258 323.254 228.014 335.628C227.69 336.665 227.442 337.66 227.327 338.633Z" fill="#263238"/>
<path d="M245.731 269.754C245.097 281.796 253.148 292.01 263.713 292.565C274.278 293.121 283.357 283.809 283.991 271.767C284.625 259.725 276.573 249.512 266.009 248.955C255.443 248.4 246.365 257.711 245.731 269.754Z" fill="#455A64"/>
<path d="M239.491 270.188C238.786 283.586 247.742 294.947 259.496 295.566C271.25 296.185 281.349 285.825 282.055 272.428C282.76 259.031 273.804 247.67 262.05 247.051C250.296 246.432 240.197 256.79 239.491 270.188Z" fill="#C7C7C7"/>
<path d="M263.993 224.537C263.993 224.537 278.246 233.186 278.27 248.291C278.294 263.395 271.798 278.102 270.301 278.615C268.805 279.127 263.993 224.537 263.993 224.537Z" fill="#263238"/>
<path d="M198.979 230.86C191.022 246.384 191.185 295.383 200.969 308.056C215.153 326.427 242.615 332.866 259.293 314.846C275.462 297.381 274.119 233.528 262.795 221.575C246.118 203.971 210.733 207.928 198.979 230.86Z" fill="#EB9481"/>
<path d="M241.027 269.453C241.001 269.327 240.768 269.609 240.772 269.745C240.872 273.045 240.43 276.842 237.441 277.932C237.349 277.966 237.358 278.133 237.47 278.117C241.115 277.61 241.65 272.564 241.027 269.453Z" fill="#263238"/>
<path d="M238.085 266.002C232.777 265.592 232.344 276.236 237.262 276.618C242.101 276.992 242.534 266.347 238.085 266.002Z" fill="#263238"/>
<path d="M259.236 270.103C259.265 269.977 259.487 270.269 259.477 270.404C259.239 273.697 259.521 277.509 262.459 278.725C262.55 278.763 262.535 278.928 262.425 278.908C258.804 278.248 258.482 273.184 259.236 270.103Z" fill="#263238"/>
<path d="M262.319 266.779C267.64 266.592 267.623 277.246 262.694 277.419C257.843 277.59 257.86 266.934 262.319 266.779Z" fill="#263238"/>
<path d="M234.081 260.964C235.545 260.658 236.846 260.132 238.263 259.679C239.861 259.169 241.187 258.928 242.278 257.555C242.863 256.821 242.687 255.451 242.026 254.816C240.487 253.337 238.373 253.476 236.423 254.013C234.307 254.595 232.825 255.584 231.554 257.368C230.323 259.097 232.15 261.368 234.081 260.964Z" fill="#263238"/>
<path d="M266.653 261.585C265.187 261.284 263.885 260.763 262.467 260.316C260.866 259.812 259.539 259.575 258.445 258.207C257.856 257.473 258.027 256.105 258.686 255.467C260.22 253.982 262.334 254.114 264.286 254.643C266.404 255.216 267.89 256.201 269.167 257.981C270.406 259.704 268.587 261.981 266.653 261.585Z" fill="#263238"/>
<path d="M235.727 300.361C236.485 301.165 237.23 302.259 238.422 302.408C239.566 302.551 240.931 302.088 242 301.722C242.106 301.687 242.208 301.802 242.136 301.898C241.229 303.129 239.395 303.85 237.878 303.519C236.396 303.197 235.71 301.878 235.404 300.498C235.361 300.303 235.616 300.243 235.727 300.361Z" fill="#263238"/>
<path d="M239.743 289.539C241.473 292.476 244.122 294.151 247.034 294.839C248.334 295.155 249.71 295.256 251.066 295.188C251.332 295.193 251.599 295.175 251.842 295.131C252.083 295.112 252.302 295.093 252.569 295.05C252.956 295.009 253.18 294.701 253.26 294.339L253.261 294.314C253.264 294.193 253.266 294.096 253.244 293.975C253.244 293.975 253.244 293.975 253.245 293.951L253.249 293.661C253.422 291.125 253.333 287.254 253.333 287.254C254.241 287.755 258.884 290.076 258.863 288.746C258.654 277.738 258.42 265.497 255.886 254.588C255.822 254.224 255.264 254.285 255.281 254.648C255.064 265.235 256.709 275.788 256.661 286.426C255.175 285.792 252.756 284.63 251.426 284.603C251.063 284.692 251.733 292.081 251.565 293.215C251.565 293.215 251.564 293.263 251.538 293.334C247.25 293.707 244.087 292.288 240.062 289.254C239.827 289.057 239.556 289.268 239.743 289.539Z" fill="#263238"/>
<path d="M249.317 293.673C249.317 293.673 247.115 296.453 244.193 297.387C243.116 297.735 241.965 297.85 240.774 297.49C238.326 296.761 238.337 294.495 238.853 292.572C239.271 290.988 240.054 289.639 240.054 289.639C240.054 289.639 243.55 293.129 249.317 293.673Z" fill="#263238"/>
<path d="M244.193 297.387C243.116 297.735 241.965 297.85 240.774 297.49C238.326 296.761 238.337 294.495 238.853 292.571C241.49 292.928 244.052 294.807 244.193 297.387Z" fill="#FF9ABB"/>
<path d="M194.503 277.492C200.269 279.158 206.59 261.793 208.346 255.127C209.896 249.252 211.487 230.672 211.746 229.403C212.005 228.134 237.035 245.405 251.431 240.94C265.827 236.475 275.281 223.333 275.38 217.273C275.479 211.212 257.267 196.126 241.713 195.595C226.16 195.064 205.448 215.162 205.448 215.162C205.448 215.162 212.453 206.511 212.2 205.815C211.946 205.119 201.971 209.296 200.241 216.479C200.241 216.479 202.08 207.469 201.318 207.313C200.557 207.157 192.88 214.977 194.736 220.776C194.736 220.776 185.839 228.743 185.146 237.326C184.449 245.91 187.726 275.535 194.503 277.492Z" fill="#263238"/>
<path d="M261.66 237.749C257.295 239.844 252.926 242.141 248.075 242.863C242.833 243.644 237.359 242.413 232.438 240.62C227.404 238.786 222.814 236.082 218.627 232.75C214.961 229.832 211.693 226.291 207.787 223.701C206.811 223.053 205.714 224.463 206.322 225.343C212.334 234.046 222.831 241.224 232.887 244.231C243.465 247.394 253.32 244.884 261.716 237.862C261.766 237.821 261.732 237.715 261.66 237.749Z" fill="#263238"/>
<path d="M203.949 272.214C203.949 272.214 195.628 255.112 188.034 257.842C180.439 260.571 184.992 284.171 192.708 288.524C200.424 292.878 204.594 285.815 204.594 285.815L203.949 272.214Z" fill="#EB9481"/>
<path d="M189.507 264.575C189.377 264.542 189.321 264.722 189.429 264.788C194.81 268.03 196.991 273.842 198.233 279.706C196.861 277.306 194.717 275.772 191.544 277.354C191.377 277.437 191.484 277.695 191.65 277.686C194.086 277.556 195.721 278.233 197.012 280.372C197.927 281.886 198.429 283.698 198.992 285.368C199.179 285.925 200.152 285.797 200.049 285.174C200.041 285.128 200.031 285.08 200.023 285.033C201.331 277.726 197.261 266.56 189.507 264.575Z" fill="#263238"/>
<path d="M193.631 255.876C193.631 255.876 193.511 229.326 200.621 214.501C204.11 207.224 211.711 204.167 220.465 203.358C220.465 203.358 215.808 205.753 210.289 216.31C204.622 227.15 202.416 256.643 202.416 256.643L193.631 255.876Z" fill="#C7C7C7"/>
<path d="M218.19 269.364C218.225 282.78 208.711 293.68 196.942 293.71C185.173 293.741 175.602 282.889 175.568 269.474C175.534 256.059 185.047 245.159 196.816 245.128C208.586 245.098 218.155 255.948 218.19 269.364Z" fill="#C7C7C7"/>
<path d="M211.98 268.619C212.01 280.679 203.459 290.477 192.88 290.504C182.3 290.531 173.699 280.777 173.667 268.717C173.637 256.659 182.188 246.861 192.767 246.833C203.347 246.806 211.949 256.56 211.98 268.619Z" fill="#455A64"/>
<path d="M201.551 268.864C201.57 276.274 196.315 282.296 189.814 282.312C183.313 282.329 178.027 276.335 178.007 268.925C177.988 261.514 183.242 255.493 189.744 255.477C196.247 255.461 201.532 261.454 201.551 268.864Z" fill="#37474F"/>
<path d="M232.295 308.289L216.959 303.881L203.418 290.822L205.433 288.734L218.454 301.292L233.096 305.499L232.295 308.289Z" fill="#C7C7C7"/>
<path d="M230.446 306.168C231.326 301.758 243.391 301.801 242.058 308.485C240.721 315.186 229.564 310.595 230.446 306.168Z" fill="#37474F"/>
<path d="M227.769 337.045L221.206 357.772L188.207 312.991L175.822 325.625L213.528 379.398L221.936 362.298L232.067 373.359L232.438 347.515L227.769 337.045Z" fill="#EBEBEB"/>
<path d="M175.822 325.625C188.921 344.149 200.13 362.813 213.761 380.944L214.228 379.654L222.559 362.527L221.445 362.747L231.693 373.699L232.563 374.629C232.628 365.593 232.514 356.552 232.437 347.515C232.116 356.127 231.759 364.737 231.56 373.351L232.438 373.016L222.426 361.85L221.696 361.036L221.311 362.07L212.828 379.141L214.123 378.95C200.8 361.162 189.653 343.026 175.822 325.625Z" fill="#263238"/>
<path d="M141.497 278.862C146.183 250.392 126.902 223.514 98.4324 218.829C69.9624 214.143 43.0844 233.424 38.3985 261.893C33.7127 290.363 52.9935 317.241 81.4635 321.927C109.933 326.613 136.811 307.332 141.497 278.862Z" fill="#009CD9"/>
<g opacity="0.1">
<path d="M102.507 311.884C98.5338 313.084 94.3204 313.729 89.9559 313.729C80.199 313.729 71.1945 310.505 63.9504 305.064C53.4223 297.157 46.6118 284.566 46.6118 270.385C46.6118 254.073 55.6222 239.866 68.9384 232.468" stroke="black" stroke-width="3" stroke-miterlimit="10"/>
<path d="M131.998 259.798C132.849 263.187 133.3 266.733 133.3 270.386C133.3 286.023 125.02 299.726 112.604 307.35" stroke="black" stroke-width="3" stroke-miterlimit="10"/>
<path d="M74.8945 229.731C79.586 227.992 84.6596 227.042 89.9559 227.042C105.637 227.042 119.374 235.37 126.984 247.844" stroke="black" stroke-width="3" stroke-miterlimit="10"/>
</g>
<path d="M100.322 303.183C99.4574 304.042 98.3897 304.51 97.2388 304.8C96.5075 304.984 95.7574 305.086 95.0143 305.224H92.4723C91.4304 305.062 90.3814 304.937 89.3477 304.732C85.4848 303.965 82.0004 302.295 78.7552 300.126C70.2863 294.472 63.3305 287.338 58.0143 278.644C56.2645 275.784 55.0245 272.701 54.4327 269.382C54.2791 268.519 54.1631 267.649 54.0283 266.781V264.239C54.2381 263.263 54.4069 262.276 54.6706 261.314C54.9155 260.424 55.3738 259.629 56.0606 258.93C56.1813 259.038 56.2985 259.133 56.4063 259.24C60.4497 263.279 64.4896 267.323 68.5412 271.355C68.8307 271.643 68.8822 271.877 68.7779 272.273C68.2095 274.43 68.5892 276.391 70.0871 278.094C73.5409 282.02 77.2234 285.716 81.1496 289.169C82.8689 290.68 84.8484 291.042 87.0248 290.466C87.3143 290.39 87.5252 290.341 87.7772 290.594C91.9097 294.744 96.0539 298.884 100.195 303.027C100.232 303.063 100.261 303.108 100.322 303.183Z" fill="white"/>
<path d="M108.255 294.104V294.951C107.862 295.459 107.51 296.007 107.067 296.466C105.818 297.759 104.53 299.018 103.256 300.289C103.12 300.425 102.979 300.552 102.868 300.658C98.691 296.484 94.5398 292.334 90.3921 288.19C92.0235 286.58 93.6549 284.926 95.3391 283.325C96.1115 282.59 97.2026 282.683 98.0054 283.465C98.9418 284.375 99.856 285.307 100.78 286.23C102.95 288.401 105.13 290.562 107.282 292.751C107.666 293.143 107.933 293.65 108.255 294.104Z" fill="white"/>
<path d="M75.5662 264.303C74.0203 265.793 72.4451 267.255 70.9145 268.7C66.9192 264.707 62.7691 260.559 58.5347 256.329C58.8101 256.082 59.1218 255.827 59.4078 255.543C60.5458 254.413 61.6627 253.258 62.8195 252.147C63.2672 251.718 63.804 251.381 64.3009 251.001H65.1483C65.6007 251.324 66.107 251.59 66.4961 251.975C69.5292 254.978 72.5389 258.004 75.5568 261.022C76.7007 262.164 76.7206 263.188 75.5662 264.303Z" fill="white"/>
<path d="M89.8349 273.885C89.8349 274.501 89.3568 274.979 88.7391 274.979H81.6895C81.6895 274.979 81.6895 274.979 81.6696 274.979H81.6497C81.3508 274.979 81.032 274.86 80.834 274.621C80.4156 274.163 80.4554 273.486 80.8938 273.068L86.7877 267.732C87.3655 267.214 87.6245 266.536 87.6245 265.82C87.6245 265.183 87.4054 264.586 86.9682 264.088C86.4502 263.51 85.7529 263.251 85.0567 263.251C84.439 263.251 83.8214 263.47 83.3245 263.909L82.7068 264.467C82.2486 264.885 81.5723 264.845 81.1539 264.387C80.7555 263.929 80.7754 263.251 81.2336 262.834L81.8501 262.276C82.7467 261.439 83.921 261.042 85.0567 261.042C86.3506 261.042 87.6656 261.58 88.6008 262.615C89.4376 263.511 89.8361 264.686 89.8361 265.821C89.8361 267.116 89.2982 268.429 88.2633 269.366L84.5 272.771H88.7415C89.3568 272.77 89.8349 273.267 89.8349 273.885Z" fill="white"/>
<path d="M102.644 271.276C102.644 271.893 102.146 272.372 101.529 272.372H101.33V273.885C101.33 274.501 100.852 274.979 100.234 274.979C99.6178 274.979 99.1396 274.501 99.1396 273.885V272.372H92.9069H92.887H92.8671C92.628 272.372 92.3889 272.312 92.1897 272.133C91.6916 271.754 91.6318 271.077 92.0103 270.598L99.3787 261.438C99.3986 261.438 99.3986 261.418 99.4185 261.398C99.4385 261.378 99.4584 261.358 99.4783 261.318C99.5381 261.299 99.558 261.279 99.5779 261.259C99.5979 261.239 99.6377 261.22 99.6576 261.199C99.6975 261.179 99.7174 261.159 99.7772 261.159C99.7971 261.119 99.817 261.099 99.8569 261.099C99.8768 261.079 99.9166 261.079 99.9764 261.059C99.9963 261.059 100.036 261.059 100.056 261.04C100.096 261.04 100.156 261.04 100.196 261.04C100.196 261.04 100.216 261.04 100.235 261.04C100.255 261.04 100.255 261.04 100.276 261.04C100.315 261.04 100.376 261.04 100.395 261.04C100.435 261.059 100.455 261.059 100.494 261.059C100.514 261.079 100.574 261.079 100.614 261.099C100.634 261.099 100.674 261.119 100.694 261.119C100.734 261.159 100.773 261.179 100.793 261.199C100.833 261.219 100.853 261.239 100.893 261.259C100.893 261.259 100.913 261.259 100.913 261.279C100.933 261.279 100.973 261.299 100.973 261.318C101.012 261.358 101.032 261.378 101.052 261.398C101.072 261.418 101.092 261.458 101.112 261.478C101.132 261.498 101.153 261.518 101.192 261.577C101.192 261.597 101.212 261.637 101.233 261.657C101.253 261.697 101.253 261.717 101.273 261.777C101.273 261.797 101.293 261.837 101.293 261.856C101.312 261.896 101.312 261.916 101.312 261.976C101.312 262.017 101.332 262.036 101.332 262.076C101.332 262.096 101.332 262.115 101.332 262.135V270.18H101.532C102.146 270.18 102.644 270.678 102.644 271.276ZM99.1384 265.262L95.1759 270.181H99.1384V265.262Z" fill="white"/>
<path d="M105.217 273.466L110.095 261.858C110.334 261.3 110.972 261.041 111.548 261.28C112.086 261.499 112.345 262.157 112.106 262.693L107.227 274.323C107.048 274.742 106.63 274.981 106.211 274.981C106.092 274.981 105.933 274.961 105.813 274.901C105.236 274.682 104.978 274.024 105.217 273.466Z" fill="white"/>
<path d="M121.948 262.554L116.969 274.322C116.81 274.74 116.411 274.979 115.954 274.979C115.835 274.979 115.675 274.959 115.536 274.899C114.978 274.64 114.72 274.003 114.939 273.466L119.241 263.25H114.102C113.506 263.25 113.008 262.733 113.008 262.135C113.008 261.519 113.506 261.041 114.102 261.041H120.933C120.993 261.041 121.052 261.041 121.132 261.06C121.272 261.08 121.411 261.16 121.551 261.22C121.57 261.24 121.59 261.259 121.61 261.28C121.65 261.3 121.67 261.319 121.69 261.359C121.71 261.399 121.75 261.419 121.77 261.439C121.79 261.479 121.81 261.499 121.829 261.519C121.849 261.539 121.87 261.598 121.87 261.618C121.89 261.657 121.91 261.678 121.95 261.718C121.95 261.738 121.97 261.798 121.97 261.818C121.99 261.857 121.99 261.877 122.01 261.917C122.03 262.057 122.03 262.216 122.01 262.356C121.987 262.434 121.967 262.494 121.948 262.554Z" fill="white"/>
<path d="M144.313 213.481C173.167 213.481 196.557 190.091 196.557 161.237C196.557 132.383 173.167 108.993 144.313 108.993C115.459 108.993 92.0688 132.383 92.0688 161.237C92.0688 190.091 115.459 213.481 144.313 213.481Z" fill="#009CD9"/>
<g opacity="0.1">
<path d="M131.763 119.738C135.736 118.538 139.95 117.893 144.314 117.893C154.071 117.893 163.076 121.117 170.32 126.558C180.848 134.465 187.658 147.056 187.658 161.237C187.658 177.549 178.648 191.756 165.332 199.154" stroke="black" stroke-width="3" stroke-miterlimit="10"/>
<path d="M102.272 171.824C101.421 168.436 100.97 164.889 100.97 161.236C100.97 145.599 109.25 131.896 121.667 124.272" stroke="black" stroke-width="3" stroke-miterlimit="10"/>
<path d="M159.375 201.893C154.683 203.631 149.61 204.581 144.313 204.581C128.632 204.581 114.895 196.253 107.285 183.779" stroke="black" stroke-width="3" stroke-miterlimit="10"/>
</g>
<path d="M175.338 172.114L172.427 167.067L170.882 167.959C170.427 168.222 169.87 168.196 169.43 167.91C169.187 167.752 168.935 167.606 168.675 167.474C168.209 167.237 167.909 166.766 167.909 166.242V164.458H162.08V166.242C162.08 166.765 161.78 167.236 161.314 167.474C161.054 167.606 160.802 167.752 160.559 167.91C160.12 168.196 159.561 168.222 159.107 167.959L157.562 167.067L154.65 172.114L156.202 173.007C156.656 173.27 156.907 173.768 156.88 174.293C156.873 174.435 156.87 174.578 156.87 174.722C156.87 174.865 156.873 175.009 156.88 175.151C156.907 175.672 156.659 176.169 156.206 176.43L154.651 177.329L157.564 182.376L159.113 181.483C159.568 181.22 160.127 181.246 160.566 181.533C160.808 181.692 161.058 181.837 161.317 181.968C161.783 182.205 162.083 182.676 162.083 183.199V184.983H167.911V183.199C167.911 182.676 168.21 182.205 168.676 181.968C168.935 181.836 169.186 181.692 169.428 181.533C169.867 181.246 170.426 181.22 170.881 181.483L172.43 182.376L175.342 177.329L173.792 176.435C173.339 176.174 173.09 175.676 173.116 175.153C173.123 175.01 173.126 174.866 173.126 174.721C173.126 174.578 173.123 174.433 173.116 174.292C173.089 173.768 173.339 173.268 173.795 173.006L175.338 172.114ZM169.768 174.722C169.768 177.358 167.632 179.492 164.996 179.492C162.36 179.492 160.22 177.356 160.22 174.722C160.22 172.086 162.36 169.947 164.996 169.947C167.632 169.947 169.768 172.086 169.768 174.722Z" fill="white"/>
<path d="M133.674 139.329C123.077 139.329 114.489 147.916 114.489 158.513C114.489 169.106 123.077 177.698 133.674 177.698C144.267 177.698 152.858 169.106 152.858 158.513C152.858 147.915 144.266 139.329 133.674 139.329ZM133.674 167.47C128.724 167.47 124.713 163.461 124.713 158.512C124.713 153.563 128.726 149.551 133.674 149.551C138.623 149.551 142.636 153.564 142.636 158.512C142.635 163.462 138.623 167.47 133.674 167.47Z" fill="white"/>
<path d="M137.362 140.123H129.984L130.392 134.901H136.954L137.362 140.123Z" fill="white"/>
<path d="M123.319 142.609L118.102 147.826L114.699 143.845L119.339 139.205L123.319 142.609Z" fill="white"/>
<path d="M115.148 154.296V161.674L109.925 161.266V154.704L115.148 154.296Z" fill="white"/>
<path d="M117.634 168.339L122.85 173.556L118.869 176.961L114.229 172.321L117.634 168.339Z" fill="white"/>
<path d="M129.321 176.51H136.699L136.291 181.733H129.729L129.321 176.51Z" fill="white"/>
<path d="M143.362 174.025L148.58 168.808L151.984 172.789L147.344 177.429L143.362 174.025Z" fill="white"/>
<path d="M151.535 162.337V154.959L156.757 155.367V161.929L151.535 162.337Z" fill="white"/>
<path d="M149.049 148.296L143.833 143.079L147.814 139.674L152.454 144.314L149.049 148.296Z" fill="white"/>
<path d="M315.369 148.935C322.127 120.884 304.864 92.6653 276.813 85.9078C248.761 79.1502 220.543 96.4124 213.785 124.464C207.028 152.516 224.29 180.734 252.342 187.491C280.393 194.249 308.612 176.987 315.369 148.935Z" fill="#009CD9"/>
<g opacity="0.1">
<path d="M223.08 149.256C221.879 145.283 221.235 141.07 221.235 136.705C221.235 126.948 224.459 117.944 229.899 110.7C237.807 100.172 250.398 93.3613 264.579 93.3613C280.891 93.3613 295.098 102.372 302.495 115.688" stroke="black" stroke-width="3" stroke-miterlimit="10"/>
<path d="M275.167 178.747C271.779 179.598 268.232 180.049 264.579 180.049C248.942 180.049 235.239 171.769 227.615 159.353" stroke="black" stroke-width="3" stroke-miterlimit="10"/>
<path d="M305.234 121.644C306.972 126.336 307.923 131.409 307.923 136.705C307.923 152.387 299.595 166.124 287.121 173.734" stroke="black" stroke-width="3" stroke-miterlimit="10"/>
</g>
<path d="M253.584 122.875C253.584 128.947 258.507 133.87 264.579 133.87C270.651 133.87 275.574 128.947 275.574 122.874C275.574 116.802 270.651 111.879 264.579 111.879C258.507 111.881 253.584 116.803 253.584 122.875Z" fill="white"/>
<path d="M245.58 153.204V157.74C248.719 159.69 252.208 161.181 256 162.101C265.801 164.495 275.634 162.656 283.579 157.723V153.203C283.579 142.736 275.079 134.204 264.58 134.204C254.08 134.205 245.58 142.737 245.58 153.204Z" fill="white"/>
<path d="M77.9448 546.442C215.723 545.724 370.279 545.718 508.056 546.442C370.278 547.165 215.722 547.16 77.9448 546.442Z" fill="#263238"/>
<path d="M293.928 534.96H282.541V542.396H293.928V534.96Z" fill="#455A64"/>
<path d="M308.696 534.468H297.308V541.903H308.696V534.468Z" fill="#455A64"/>
<path d="M323.464 533.978H312.076V541.413H323.464V533.978Z" fill="#455A64"/>
<path d="M338.232 533.486H326.843V540.921H338.232V533.486Z" fill="#455A64"/>
<path d="M353 532.995H341.612V540.43H353V532.995Z" fill="#455A64"/>
<path d="M367.767 532.504H356.379V539.94H367.767V532.504Z" fill="#455A64"/>
<path d="M382.536 532.012H371.147V539.447H382.536V532.012Z" fill="#455A64"/>
<path d="M397.304 531.521H385.916V538.956H397.304V531.521Z" fill="#455A64"/>
<path d="M412.071 531.03H400.683V538.465H412.071V531.03Z" fill="#455A64"/>
<path d="M414.859 546.671H279.752V537.625L414.859 533.858V546.671Z" fill="#37474F"/>
<path d="M493.61 510.257H306.325L336.109 370.829H523.394L493.61 510.257Z" fill="#455A64"/>
<path d="M500.537 510.257H313.253L343.037 370.829H530.321L500.537 510.257Z" fill="#37474F"/>
<path d="M437.972 432.465C436.959 438.86 430.954 444.044 424.558 444.044C418.162 444.044 413.799 438.86 414.813 432.465C415.825 426.069 421.831 420.885 428.226 420.885C434.622 420.885 438.985 426.069 437.972 432.465Z" fill="#263238"/>
<path d="M447.569 546.671H355.457V539.519L447.569 536.541V546.671Z" fill="#455A64"/>
<path d="M472.612 546.662H423.157L393.373 468.533H442.828L472.612 546.662Z" fill="#455A64"/>
<path d="M480.753 546.662H431.297L401.513 468.533H450.968L480.753 546.662Z" fill="#263238"/>
<path d="M316.373 546.671C316.373 546.671 236.521 546.671 229.068 546.671C221.616 546.671 232.398 525.456 259.59 517.316C286.781 509.178 324.95 538.714 316.373 546.671Z" fill="#37474F"/>
<path d="M282.113 546.671C281.894 544.228 282.233 541.769 282.85 539.394C283.463 537.012 284.46 534.725 285.717 532.582C286.986 530.445 288.633 528.515 290.543 526.924C292.405 525.271 294.705 524.166 297.016 523.454C295.188 525.1 293.387 526.546 291.908 528.338C290.415 530.083 289.006 531.885 287.87 533.881C285.482 537.806 283.735 542.098 282.113 546.671Z" fill="#263238"/>
<path d="M292.458 526.485C295.154 527.046 297.73 528 300.221 529.132C302.719 530.258 305.095 531.655 307.365 533.23C309.615 534.825 311.725 536.701 313.444 538.935C315.14 541.126 316.543 543.861 316.373 546.67C315.485 544.053 313.794 542.056 311.966 540.228C310.101 538.432 308.082 536.766 305.904 535.276C301.617 532.2 297.028 529.5 292.458 526.485Z" fill="#263238"/>
<path d="M423.189 230.59H298.224V278.098L277.735 295.448H298.224V302.718H423.189V230.59Z" fill="white"/>
<path d="M423.189 230.59C392.025 230.769 329.372 230.926 298.223 230.974L298.607 230.59L298.717 278.098V278.326L298.541 278.475L278.091 295.87L277.734 294.896L298.221 294.873L298.798 294.872L298.797 295.448L298.782 302.718C295.422 301.204 423.85 302.765 423.188 302.29C423.188 302.291 422.762 302.718 422.762 302.718C422.762 284.748 423.044 248.561 423.189 230.59ZM423.189 230.59C423.327 248.568 423.607 284.74 423.616 302.718L423.618 303.145C422.465 303.14 298.795 303.282 297.665 303.278L297.664 302.718L297.648 295.448L298.224 296.024L277.736 296L276.227 295.999L277.38 295.027L297.905 277.72L297.73 278.098L297.841 230.59L297.842 230.204L298.226 230.205C329.36 230.259 392.062 230.415 423.189 230.59Z" fill="#263238"/>
<path d="M402.066 269.577H310.653V271.135H402.066V269.577Z" fill="#263238"/>
<path d="M387.045 277.988H310.653V279.545H387.045V277.988Z" fill="#263238"/>
<path d="M391.425 252.758H310.653V254.315H391.425V252.758Z" fill="#263238"/>
<path d="M410.501 244.348H310.653V245.905H410.501V244.348Z" fill="#263238"/>
<path d="M393.063 286.396H310.653V287.954H393.063V286.396Z" fill="#263238"/>
</svg>
